HIERARCHY
ROOT joint_Root
{
  OFFSET 0 0 0
  CHANNELS 6 Xposition Yposition Zposition Zrotation Xrotation Yrotation
  JOINT Hips
  {
    OFFSET 0 93.9241 -3
    CHANNELS 6 Xposition Yposition Zposition Zrotation Xrotation Yrotation
    JOINT Spine
    {
      OFFSET 15.7357 0 0
      CHANNELS 6 Xposition Yposition Zposition Zrotation Xrotation Yrotation
      JOINT Chest
      {
        OFFSET 8.98455 -0.406207 0
        CHANNELS 6 Xposition Yposition Zposition Zrotation Xrotation Yrotation
        JOINT Neck
        {
          OFFSET 16.3773 0 0
          CHANNELS 6 Xposition Yposition Zposition Zrotation Xrotation Yrotation
          JOINT Head
          {
            OFFSET 6.45672 0 0
            CHANNELS 6 Xposition Yposition Zposition Zrotation Xrotation Yrotation
            End Site
            {
              OFFSET 0 0 0
            }
          }
        }
        JOINT Shoulder_L
        {
          OFFSET 12.9942 -0.242716 4.98039
          CHANNELS 6 Xposition Yposition Zposition Zrotation Xrotation Yrotation
          JOINT UpperArm_L
          {
            OFFSET 5.34809 0 0
            CHANNELS 6 Xposition Yposition Zposition Zrotation Xrotation Yrotation
            JOINT LowerArm_L
            {
              OFFSET 24.3286 1.87007e-05 0
              CHANNELS 6 Xposition Yposition Zposition Zrotation Xrotation Yrotation
              JOINT Hand_L
              {
                OFFSET 22.2916 0 0
                CHANNELS 6 Xposition Yposition Zposition Zrotation Xrotation Yrotation
                End Site
                {
                  OFFSET 0 0 0
                }
              }
            }
          }
        }
        JOINT Shoulder_R
        {
          OFFSET 12.9945 -0.242716 -4.98039
          CHANNELS 6 Xposition Yposition Zposition Zrotation Xrotation Yrotation
          JOINT UpperArm_R
          {
            OFFSET -5.34813 0 0
            CHANNELS 6 Xposition Yposition Zposition Zrotation Xrotation Yrotation
            JOINT LowerArm_R
            {
              OFFSET -24.3289 0.000322201 0
              CHANNELS 6 Xposition Yposition Zposition Zrotation Xrotation Yrotation
              JOINT Hand_R
              {
                OFFSET -22.2915 -0.000108084 0
                CHANNELS 6 Xposition Yposition Zposition Zrotation Xrotation Yrotation
                End Site
                {
                  OFFSET 0 0 0
                }
              }
            }
          }
        }
      }
    }
    JOINT UpperLeg_L
    {
      OFFSET -2.19248 -6.46944 0
      CHANNELS 6 Xposition Yposition Zposition Zrotation Xrotation Yrotation
      JOINT LowerLeg_L
      {
        OFFSET 39.0811 0 -1.23785e-05
        CHANNELS 6 Xposition Yposition Zposition Zrotation Xrotation Yrotation
        JOINT Foot_L
        {
          OFFSET 40.9854 0 -1.26872e-05
          CHANNELS 6 Xposition Yposition Zposition Zrotation Xrotation Yrotation
          JOINT Toes_L
          {
            OFFSET 11.7543 0 0
            CHANNELS 6 Xposition Yposition Zposition Zrotation Xrotation Yrotation
            End Site
            {
              OFFSET 0 0 0
            }
          }
        }
      }
    }
    JOINT UpperLeg_R
    {
      OFFSET -2.19251 6.46944 0
      CHANNELS 6 Xposition Yposition Zposition Zrotation Xrotation Yrotation
      JOINT LowerLeg_R
      {
        OFFSET -39.0811 -0.00228153 -0.0401928
        CHANNELS 6 Xposition Yposition Zposition Zrotation Xrotation Yrotation
        JOINT Foot_R
        {
          OFFSET -40.9854 0 0
          CHANNELS 6 Xposition Yposition Zposition Zrotation Xrotation Yrotation
          JOINT Toes_R
          {
            OFFSET -11.7543 0 0
            CHANNELS 6 Xposition Yposition Zposition Zrotation Xrotation Yrotation
            End Site
            {
              OFFSET 0 0 0
            }
          }
        }
      }
    }
  }
}
MOTION
Frames:	9
Frame Time:	0.0333333
0 0 0 0 0 -0 -29.3356 78.2353 96.8318 89.0129 -48.9707 1.11551 15.7357 5.1072e-06 -5.51765e-07 -6.53936 84.9106 6.54505 8.98455 -0.406207 -4.3199e-07 -9.00805 -10.0784 -0.784474 16.3773 -1.3905e-06 -6.99897e-07 -6.29421 11.6522 0.33106 6.45672 -1.25837e-06 -1.02172e-07 14.1702 28.0984 -0.986753 12.9942 -0.242716 4.98039 -90.9177 -12.9694 -109.082 5.34809 -7.22636e-06 -6.2814e-07 -65.0321 1.90271 -99.6115 24.3286 1.87007e-05 4.90208e-06 -35.8137 -44.3813 -45.8933 22.2916 -9.88446e-07 4.63217e-06 -0.184695 4.73468 12.5287 12.9945 -0.242716 -4.98039 93.1514 -10.9888 -88.8892 -5.34813 -1.25947e-06 -3.79883e-06 -36.392 -26.4312 -109.425 -24.3289 0.000322201 -8.65921e-06 -0.709445 6.55865 0.0661942 -22.2915 -0.000108084 -4.47941e-06 38.6401 4.12305 24.4286 -2.19248 -6.46944 -1.22534e-07 -153.281 -27.0011 12.1738 39.0811 -6.73843e-06 -1.23785e-05 0.447564 -0.293353 52.2513 40.9854 -6.48686e-06 -1.26872e-05 -21.8456 -0.584266 -68.5197 11.7543 -2.30145e-07 3.05095e-06 -2.57852 -4.6151 -38.4934 -2.19251 6.46944 -1.45247e-06 178.201 -6.5056 131.227 -39.0811 -0.00228153 -0.0401928 -0.0628957 0.0324847 65.5993 -40.9854 7.72618e-06 5.99936e-06 0.443484 8.34414 -65.9418 -11.7543 -5.6619e-06 -5.58687e-06 -0.282098 0.268251 -16.5717 
0 0 0 0 0 -0 -28.2343 78.5687 96.2319 89.4927 -47.4556 2.878 15.7357 5.1072e-06 -5.51765e-07 -2.66851 85.0528 2.56293 8.98455 -0.406207 -4.3199e-07 -8.30831 -9.8401 -0.928486 16.3773 -1.3905e-06 -6.99897e-07 -5.71953 11.4432 0.0189765 6.45672 -1.25837e-06 -1.02172e-07 14.1347 27.5088 -0.913288 12.9942 -0.242716 4.98039 -90.892 -12.7322 -109.041 5.34809 -7.22636e-06 -6.2814e-07 -64.8903 1.919 -99.0505 24.3286 1.87007e-05 4.90208e-06 -34.0732 -43.2447 -44.6319 22.2916 -9.88446e-07 4.63217e-06 0.170863 4.73311 12.5582 12.9945 -0.242716 -4.98039 93.0441 -10.8533 -89.2288 -5.34813 -1.25947e-06 -3.79883e-06 -37.2754 -25.7272 -109.104 -24.3289 0.000322201 -8.65921e-06 -0.675611 5.27358 0.0631483 -22.2915 -0.000108084 -4.47941e-06 39.6692 4.13817 24.0725 -2.19248 -6.46944 -1.22534e-07 -152.791 -27.0478 11.4124 39.0811 -6.73843e-06 -1.23785e-05 0.551537 -0.350733 53.9825 40.9854 -6.48686e-06 -1.26872e-05 -20.2546 0.432893 -67.9155 11.7543 -2.30145e-07 3.05095e-06 -2.48635 -4.53211 -38.1061 -2.19251 6.46944 -1.45247e-06 177.41 -6.00077 132.735 -39.0811 -0.00228153 -0.0401928 -0.0786831 0.0417033 64.0018 -40.9854 7.72618e-06 5.99936e-06 -0.604963 7.52725 -64.4301 -11.7543 -5.6619e-06 -5.58687e-06 -0.310798 0.290752 -16.5706 
0 0 0 0 0 -0 -26.7315 79.0336 95.3583 90.1013 -45.2066 4.97259 15.7357 5.1072e-06 -5.51765e-07 2.97401 85.1774 -3.30035 8.98455 -0.406207 -4.3199e-07 -7.3525 -9.56742 -1.27114 16.3773 -1.3905e-06 -6.99897e-07 -4.90769 10.9119 -0.269748 6.45672 -1.25837e-06 -1.02172e-07 13.7814 26.5812 -0.596072 12.9942 -0.242716 4.98039 -90.8967 -12.5099 -109.133 5.34809 -7.22636e-06 -6.2814e-07 -64.7156 1.8866 -98.3898 24.3286 1.87007e-05 4.90208e-06 -31.1701 -41.091 -42.6249 22.2916 -9.88446e-07 4.63217e-06 0.945791 4.73097 12.5956 12.9945 -0.242716 -4.98039 92.9435 -10.6622 -89.4688 -5.34813 -1.25947e-06 -3.79883e-06 -38.4626 -24.8286 -108.409 -24.3289 0.000322201 -8.65921e-06 -0.588824 2.48516 0.0544182 -22.2915 -0.000108084 -4.47941e-06 41.5055 4.20022 22.851 -2.19248 -6.46944 -1.22533e-07 -152.771 -26.7734 10.2618 39.0811 -6.73843e-06 -1.23785e-05 0.643859 -0.393194 55.6441 40.9854 -6.48686e-06 -1.26872e-05 -18.2352 1.25197 -67.8302 11.7543 -2.30145e-07 3.05095e-06 -2.65279 -4.58406 -37.4479 -2.19251 6.46944 -1.45247e-06 176.132 -5.70255 134.703 -39.0811 -0.00228153 -0.0401928 -0.067115 0.0427962 61.6247 -40.9854 7.72618e-06 5.99936e-06 -2.24164 5.88809 -62.3468 -11.7543 -5.6619e-06 -5.58687e-06 -0.340397 0.311189 -16.5691 
0 0 0 0 0 -0 -24.6902 79.7555 94.1659 90.6381 -42.5394 7.09167 15.7357 5.1072e-06 -5.51765e-07 9.99415 85.2072 -10.6039 8.98455 -0.406207 -4.3199e-07 -6.19877 -9.35114 -1.7305 16.3773 -1.3905e-06 -6.99897e-07 -3.68696 10.1594 -0.180251 6.45672 -1.25837e-06 -1.02172e-07 13.2783 25.3248 -0.379458 12.9942 -0.242716 4.98039 -90.925 -12.1056 -109.402 5.34809 -7.22636e-06 -6.2814e-07 -64.562 1.85693 -97.2166 24.3286 1.87007e-05 4.90208e-06 -27.1543 -37.5883 -40.0598 22.2916 -9.88446e-07 4.63217e-06 1.88779 4.72576 12.6927 12.9945 -0.242716 -4.98039 92.7848 -10.3225 -89.8125 -5.34813 -1.25947e-06 -3.79883e-06 -40.6428 -23.2824 -107.458 -24.3289 0.000322201 -8.65921e-06 -0.421921 0.543515 0.0395862 -22.2915 -0.000108084 -4.47941e-06 43.2111 4.2396 21.7375 -2.19248 -6.46944 -1.22534e-07 -153.323 -26.5756 8.96619 39.0811 -6.73843e-06 -1.23785e-05 0.695756 -0.414037 56.6401 40.9854 -6.48686e-06 -1.26872e-05 -16.1201 1.51449 -68.3437 11.7543 -2.30145e-07 3.05095e-06 -3.31069 -4.96253 -36.7844 -2.19251 6.46944 -1.45247e-06 174.717 -5.37695 137.109 -39.0811 -0.00228153 -0.0401928 0.0398057 -0.0237552 58.0806 -40.9854 7.72618e-06 5.99936e-06 -3.00666 3.64488 -59.5041 -11.7543 -5.6619e-06 -5.58687e-06 -0.889009 -0.405879 -16.0831 
0 0 0 0 0 -0 -21.9268 80.8639 92.5478 91.0354 -39.8196 8.96647 15.7357 5.1072e-06 -5.51765e-07 18.7247 85.1286 -19.5201 8.98455 -0.406207 -4.3199e-07 -4.73346 -9.13211 -1.97255 16.3773 -1.3905e-06 -6.99897e-07 -2.55783 9.37581 -0.0626179 6.45672 -1.25837e-06 -1.02172e-07 12.6661 24.0688 -0.226184 12.9942 -0.242716 4.98039 -90.8867 -11.4982 -109.44 5.34809 -7.22636e-06 -6.2814e-07 -64.7633 2.05237 -95.6295 24.3286 1.87007e-05 4.90208e-06 -23.8446 -33.9514 -38.3585 22.2916 -9.88446e-07 4.63217e-06 2.97636 4.75549 12.1506 12.9945 -0.242716 -4.98039 92.7048 -10.1245 -89.9574 -5.34813 -1.25947e-06 -3.79883e-06 -43.8107 -21.1993 -106.517 -24.3289 0.000322201 -8.65921e-06 -0.149544 -1.00213 0.0140098 -22.2915 -0.000108084 -4.47941e-06 44.9585 4.26894 20.582 -2.19248 -6.46944 -1.22534e-07 -154.92 -26.4816 7.50595 39.0811 -6.73843e-06 -1.23785e-05 0.682044 -0.409035 56.52 40.9854 -6.48686e-06 -1.26872e-05 -14.1111 0.759392 -69.6721 11.7543 -2.30145e-07 3.05095e-06 -4.27351 -5.59076 -35.4589 -2.19251 6.46944 -1.45247e-06 173.547 -4.56646 140.091 -39.0811 -0.00228153 -0.0401928 0.296138 -0.226637 52.4218 -40.9854 7.72618e-06 5.99936e-06 -1.00124 1.47071 -54.836 -11.7543 -5.6619e-06 -5.58687e-06 -1.47577 -1.2739 -15.9975 
0 0 0 0 0 -0 -18.3858 82.3306 90.2937 90.9403 -37.5697 9.36104 15.7357 5.1072e-06 -5.51765e-07 25.4497 85.1359 -26.0624 8.98455 -0.406207 -4.3199e-07 -3.65294 -8.71821 -1.50614 16.3773 -1.3905e-06 -6.99897e-07 -1.76341 8.65292 -0.047015 6.45672 -1.25837e-06 -1.02172e-07 12.2823 22.7418 -0.367505 12.9942 -0.242716 4.98039 -90.7456 -10.2231 -109.193 5.34809 -7.22636e-06 -6.2814e-07 -65.3283 2.43175 -93.5643 24.3286 1.87007e-05 4.90208e-06 -19.9686 -28.6187 -37.1858 22.2916 -9.88446e-07 4.63217e-06 4.81675 4.76833 11.9107 12.9945 -0.242716 -4.98039 92.5978 -9.86282 -90.164 -5.34813 -1.25947e-06 -3.79883e-06 -46.7298 -18.9527 -104.928 -24.3289 0.000322201 -8.65921e-06 -0.188736 -3.84366 -2.7783 -22.2915 -0.000108084 -4.47941e-06 45.6901 4.33057 19.3169 -2.19248 -6.46944 -1.22534e-07 -157.643 -27.0612 4.79973 39.0811 -6.73843e-06 -1.23785e-05 0.637546 -0.401233 55.3236 40.9854 -6.48686e-06 -1.26872e-05 -12.4245 -0.96703 -71.1735 11.7543 -2.30145e-07 3.05095e-06 -4.34923 -5.62151 -34.5989 -2.19251 6.46944 -1.45247e-06 171.844 -4.03897 142.803 -39.0811 -0.00228153 -0.0401928 0.256555 -0.277539 42.9783 -40.9854 7.72618e-06 5.99936e-06 -1.95848 0.236983 -44.2773 -11.7543 -5.6619e-06 -5.58687e-06 -1.98522 -2.29566 -18.8546 
0 0 0 0 0 -0 -14.4662 83.9483 87.4315 90.242 -36.3493 7.65274 15.7357 5.1072e-06 -5.51765e-07 28.2952 85.5528 -28.3364 8.98455 -0.406207 -4.3199e-07 -3.56899 -7.82308 -0.326543 16.3773 -1.3905e-06 -6.99897e-07 -1.56317 8.11652 0.0306557 6.45672 -1.25837e-06 -1.02172e-07 12.1958 21.3436 -0.40494 12.9942 -0.242716 4.98039 -90.5534 -8.96567 -108.546 5.34809 -7.22636e-06 -6.2814e-07 -65.4901 2.8728 -91.3769 24.3286 1.87007e-05 4.90208e-06 -17.1458 -24.3528 -36.8034 22.2916 -9.88446e-07 4.63217e-06 6.13577 4.7964 11.3876 12.9945 -0.242716 -4.98039 92.393 -9.55297 -90.8664 -5.34813 -1.25947e-06 -3.79883e-06 -48.2826 -16.9909 -102.181 -24.3289 0.000322201 -8.65921e-06 -0.830204 -5.7138 -8.25162 -22.2915 -0.000108084 -4.47941e-06 45.5734 4.37508 18.6215 -2.19248 -6.46944 -1.22534e-07 -160.338 -29.0898 1.24389 39.0811 -6.73843e-06 -1.23785e-05 0.713815 -0.498072 53.0702 40.9854 -6.48686e-06 -1.26872e-05 -11.2677 -0.915089 -73.9524 11.7543 -2.30145e-07 3.05095e-06 -2.67198 -3.92183 -28.5793 -2.19251 6.46944 -1.45247e-06 170.355 -5.20971 146.028 -39.0811 -0.00228153 -0.0401928 0.130908 -0.267879 27.4461 -40.9854 7.72618e-06 5.99936e-06 -2.03362 -2.12452 -27.3161 -11.7543 -5.6619e-06 -5.58687e-06 -2.56108 -3.53414 -24.1669 
0 0 0 0 0 -0 -10.7168 85.3667 84.5918 90.1603 -35.6049 6.13032 15.7357 5.1072e-06 -5.51765e-07 31.644 86.1074 -31.3369 8.98455 -0.406207 -4.3199e-07 -3.67583 -6.65466 0.401161 16.3773 -1.3905e-06 -6.99897e-07 -2.21262 7.85015 0.508752 6.45672 -1.25837e-06 -1.02172e-07 12.195 19.8287 -0.385791 12.9942 -0.242716 4.98039 -90.3841 -8.53575 -107.586 5.34809 -7.22636e-06 -6.2814e-07 -64.2671 2.98511 -90.051 24.3286 1.87007e-05 4.90208e-06 -15.2015 -21.7115 -36.2983 22.2916 -9.88446e-07 4.63217e-06 8.33443 4.83272 10.694 12.9945 -0.242716 -4.98039 92.1895 -9.41434 -91.8445 -5.34813 -1.25947e-06 -3.79883e-06 -50.2482 -15.0483 -99.8089 -24.3289 0.000322201 -8.65921e-06 -1.65552 -7.48097 -12.5098 -22.2915 -0.000108084 -4.47941e-06 46.0795 4.50676 16.4832 -2.19248 -6.46944 -1.22534e-07 -163.326 -31.7595 -1.88757 39.0811 -6.73843e-06 -1.23785e-05 0.67038 -0.524091 50.0699 40.9854 -6.48686e-06 -1.26872e-05 -9.87534 0.0787005 -75.5626 11.7543 -2.30145e-07 3.05095e-06 -1.20891 -2.08232 -23.9681 -2.19251 6.46944 -1.45247e-06 168.843 -6.20019 151.345 -39.0811 -0.00228153 -0.0401928 0.0464359 -0.364039 8.26554 -40.9854 7.72618e-06 5.99936e-06 -0.600478 -4.57364 -11.8167 -11.7543 -5.6619e-06 -5.58687e-06 0.0561198 -0.058515 -17.0252 
0 0 0 0 0 -0 -7.68371 86.3588 82.1349 90.6992 -34.412 5.75352 15.7357 5.1072e-06 -5.51765e-07 38.3595 86.409 -37.9897 8.98455 -0.406207 -4.3199e-07 -3.29812 -5.66462 0.576892 16.3773 -1.3905e-06 -6.99897e-07 -3.09047 7.60715 0.619498 6.45672 -1.25837e-06 -1.02172e-07 11.408 18.0983 -0.392825 12.9942 -0.242716 4.98039 -90.2119 -8.46813 -106.439 5.34809 -7.22636e-06 -6.2814e-07 -62.1587 2.73837 -89.5331 24.3286 1.87007e-05 4.90208e-06 -12.8131 -18.3495 -35.8469 22.2916 -9.88446e-07 4.63217e-06 12.6113 4.81374 11.0488 12.9945 -0.242716 -4.98039 92.0086 -9.44141 -92.9321 -5.34813 -1.25947e-06 -3.79883e-06 -52.9281 -13.7366 -98.4821 -24.3289 0.000322201 -8.65921e-06 -2.93314 -11.0854 -14.9043 -22.2915 -0.000108084 -4.47941e-06 44.4206 4.69798 13.1714 -2.19248 -6.46944 -1.22533e-07 -166.466 -33.723 -4.45252 39.0811 -6.73843e-06 -1.23785e-05 0.598122 -0.511069 47.686 40.9854 -6.48686e-06 -1.26872e-05 -7.62433 0.317565 -76.2239 11.7543 -2.30145e-07 3.05095e-06 -0.804203 -1.29605 -20.513 -2.19251 6.46944 -1.45247e-06 168.831 -4.54137 151.627 -39.0811 -0.00228153 -0.0401928 0.0272642 -0.218027 7.65029 -40.9854 7.72618e-06 5.99936e-06 1.35058 -2.95153 -19.8154 -11.7543 -5.6619e-06 -5.58687e-06 0.0543574 -0.0566637 -17.0111 
